# xmcd
#
# Track frame offsets: 
#        150
#        15055
#        28502
#        40377
#        53570
#        65915
#        79425
#        95840
#        109760
#        123332
#        137485
#        150520
#        164417
#        178820
#        192992
#        207605
#        222487
#        235600
#        249997
#        263997
#        278680
#        292387
#        305677
#        318212
#        332405
#
# Disc length: 4612 seconds
#
# Revision: 0
# Processed by: cddbd v1.5.2PL0 Copyright (c) Steve Scherf et al.
# Submitted via: ExactAudioCopyFreeDBPlugin 1.0
#
DISCID=71120219
DTITLE=Various Artist - Piano Blues Vol. 4 (1923-1928)
DYEAR=1995
DGENRE=Blues
TTITLE0=Q. Roscoe Snowden - Deep Sea Blues
TTITLE1=Q. Roscoe Snowden - Misery Blues
TTITLE2=Tiny Franklin - Shorty George Blues
TTITLE3=Tiny Franklin - Up the Country Blues
TTITLE4=Tiny Franklin - Houston Blues
TTITLE5=Tiny Franklin - I've Got a Man of My Own
TTITLE6=Ray Logan - Lost John Blues
TTITLE7=Ray Logan - You Can't Shake It in Here
TTITLE8=Hermes Zimmerman - Life's Railway to Heaven
TTITLE9=Hermes Zimmerman - The Chief Cornerstone
TTITLE10=Jack Erby - Lonesome Jimmy Blues
TTITLE11=Jack Erby - Mammy Ala's Jelly Roll
TTITLE12=Jack Erby - Hot Pepper
TTITLE13=Jack Erby - Awfully Blue
TTITLE14=Sugar Underwood - Davis Street Blues
TTITLE15=Sugar Underwood - Dew Drop Alley Stomp
TTITLE16=Lucius Hardy - Jelly Bean Blues
TTITLE17=Lucius Hardy - Mr. Blues
TTITLE18=Stovepipe Johnson - Devilish Blues
TTITLE19=Stovepipe Johnson - Green Grass
TTITLE20=Stovepipe Johnson - Don't Let Your Mouth Start Nothing Your H
TTITLE20=ead Won't Stand
TTITLE21=Skeet Brown - Skeet Skat Blues
TTITLE22=Yodeling Kid Brown - Policy Blues
TTITLE23=Keghouse - Canned Heat Blues
TTITLE24=Keghouse - Sock It Blues
EXTD=
EXTT0=
EXTT1=
EXTT2=
EXTT3=
EXTT4=
EXTT5=
EXTT6=
EXTT7=
EXTT8=
EXTT9=
EXTT10=
EXTT11=
EXTT12=
EXTT13=
EXTT14=
EXTT15=
EXTT16=
EXTT17=
EXTT18=
EXTT19=
EXTT20=
EXTT21=
EXTT22=
EXTT23=
EXTT24=
PLAYORDER=
